<mxfile>
    <diagram id="_aAut9FGOpw1Qjv1Djvd" name="Page-1">
        <mxGraphModel dx="997" dy="1883" grid="1" gridSize="10" guides="1" tooltips="1" connect="1" arrows="1" fold="1" page="1" pageScale="1" pageWidth="850" pageHeight="1100" math="0" shadow="0">
            <root>
                <mxCell id="0"/>
                <mxCell id="1" parent="0"/>
                <mxCell id="197" value="" style="rounded=1;whiteSpace=wrap;html=1;" parent="1" vertex="1">
                    <mxGeometry x="67.19" y="-510" width="371.56" height="160" as="geometry"/>
                </mxCell>
                <mxCell id="10" value="" style="rounded=1;whiteSpace=wrap;html=1;" parent="1" vertex="1">
                    <mxGeometry x="68" y="-770" width="487.75" height="140" as="geometry"/>
                </mxCell>
                <mxCell id="2" value="Streams&lt;br&gt;(Kafka streams + Zookeeper)" style="shape=cylinder3;whiteSpace=wrap;html=1;boundedLbl=1;backgroundOutline=1;size=15;" parent="1" vertex="1">
                    <mxGeometry x="204.01" y="-740" width="105" height="75" as="geometry"/>
                </mxCell>
                <mxCell id="12" value="&lt;font style=&quot;font-size: 14px&quot;&gt;Storage&lt;/font&gt;" style="text;html=1;strokeColor=none;fillColor=none;align=center;verticalAlign=middle;whiteSpace=wrap;rounded=0;" parent="1" vertex="1">
                    <mxGeometry x="90.38" y="-768" width="40" height="20" as="geometry"/>
                </mxCell>
                <mxCell id="21" value="Collector" style="rounded=1;whiteSpace=wrap;html=1;" parent="1" vertex="1">
                    <mxGeometry x="86.32" y="-890" width="99.63" height="80" as="geometry"/>
                </mxCell>
                <mxCell id="26" value="Analytics&lt;br&gt;(Dashboard)" style="rounded=1;whiteSpace=wrap;html=1;" parent="1" vertex="1">
                    <mxGeometry x="206.69" y="-890" width="99.63" height="80" as="geometry"/>
                </mxCell>
                <mxCell id="177" value="Syslog" style="shape=cylinder3;whiteSpace=wrap;html=1;boundedLbl=1;backgroundOutline=1;size=15;" parent="1" vertex="1">
                    <mxGeometry x="434.68000000000006" y="-737.5" width="105" height="75" as="geometry"/>
                </mxCell>
                <mxCell id="178" value="Outliers" style="shape=cylinder3;whiteSpace=wrap;html=1;boundedLbl=1;backgroundOutline=1;size=15;" parent="1" vertex="1">
                    <mxGeometry x="319.68000000000006" y="-740" width="105" height="75" as="geometry"/>
                </mxCell>
                <mxCell id="194" value="Stream-based classifier" style="rounded=1;whiteSpace=wrap;html=1;" parent="1" vertex="1">
                    <mxGeometry x="200.69" y="-477" width="109.62" height="50" as="geometry"/>
                </mxCell>
                <mxCell id="195" value="" style="endArrow=classic;html=1;exitX=0.75;exitY=0;exitDx=0;exitDy=0;entryX=0.5;entryY=1;entryDx=0;entryDy=0;entryPerimeter=0;" parent="1" source="319" target="178" edge="1">
                    <mxGeometry width="50" height="50" relative="1" as="geometry">
                        <mxPoint x="296.4649999999997" y="-485.6500000000001" as="sourcePoint"/>
                        <mxPoint x="255.5" y="-672.5" as="targetPoint"/>
                    </mxGeometry>
                </mxCell>
                <mxCell id="199" value="" style="endArrow=classic;html=1;entryX=0.5;entryY=1;entryDx=0;entryDy=0;exitX=0.509;exitY=-0.003;exitDx=0;exitDy=0;exitPerimeter=0;" parent="1" source="197" target="319" edge="1">
                    <mxGeometry width="50" height="50" relative="1" as="geometry">
                        <mxPoint x="113.75" y="-321" as="sourcePoint"/>
                        <mxPoint x="259.19000000000005" y="-415" as="targetPoint"/>
                    </mxGeometry>
                </mxCell>
                <mxCell id="200" value="" style="endArrow=classic;html=1;exitX=0.5;exitY=1;exitDx=0;exitDy=0;exitPerimeter=0;entryX=0.825;entryY=0.001;entryDx=0;entryDy=0;entryPerimeter=0;" parent="1" source="178" target="197" edge="1">
                    <mxGeometry width="50" height="50" relative="1" as="geometry">
                        <mxPoint x="176.3800000000001" y="-376.5" as="sourcePoint"/>
                        <mxPoint x="333.75" y="-320" as="targetPoint"/>
                    </mxGeometry>
                </mxCell>
                <mxCell id="202" value="&lt;font style=&quot;font-size: 14px&quot;&gt;Model builders (MLflow/Airflow/...)&lt;/font&gt;" style="text;html=1;strokeColor=none;fillColor=none;align=center;verticalAlign=middle;whiteSpace=wrap;rounded=0;" parent="1" vertex="1">
                    <mxGeometry x="83.38" y="-503" width="214.62" height="20" as="geometry"/>
                </mxCell>
                <mxCell id="203" value="QARMA&lt;br&gt;classifier" style="rounded=1;whiteSpace=wrap;html=1;" parent="1" vertex="1">
                    <mxGeometry x="319.38" y="-477" width="109.62" height="50" as="geometry"/>
                </mxCell>
                <mxCell id="204" value="Batch&lt;br&gt;classifier" style="rounded=1;whiteSpace=wrap;html=1;" parent="1" vertex="1">
                    <mxGeometry x="77.88" y="-477" width="109.62" height="50" as="geometry"/>
                </mxCell>
                <mxCell id="206" value="" style="endArrow=classic;html=1;exitX=0.5;exitY=1;exitDx=0;exitDy=0;entryX=0.5;entryY=0;entryDx=0;entryDy=0;entryPerimeter=0;" parent="1" source="21" target="2" edge="1">
                    <mxGeometry relative="1" as="geometry">
                        <mxPoint x="98" y="-750" as="sourcePoint"/>
                        <mxPoint x="258" y="-750" as="targetPoint"/>
                    </mxGeometry>
                </mxCell>
                <mxCell id="209" value="" style="endArrow=classic;html=1;entryX=0.5;entryY=1;entryDx=0;entryDy=0;exitX=0.5;exitY=0;exitDx=0;exitDy=0;exitPerimeter=0;" parent="1" source="2" target="26" edge="1">
                    <mxGeometry width="50" height="50" relative="1" as="geometry">
                        <mxPoint x="318.9218448475492" y="-732.5" as="sourcePoint"/>
                        <mxPoint x="411.3800000000001" y="-798.64" as="targetPoint"/>
                    </mxGeometry>
                </mxCell>
                <mxCell id="211" value="Sensors" style="ellipse;shape=cloud;whiteSpace=wrap;html=1;" parent="1" vertex="1">
                    <mxGeometry x="30" y="-1060" width="192.69" height="130" as="geometry"/>
                </mxCell>
                <mxCell id="212" value="" style="endArrow=classic;html=1;exitX=0.55;exitY=0.95;exitDx=0;exitDy=0;exitPerimeter=0;entryX=0.5;entryY=0;entryDx=0;entryDy=0;" parent="1" source="211" target="21" edge="1">
                    <mxGeometry width="50" height="50" relative="1" as="geometry">
                        <mxPoint x="383.1300000000001" y="-534" as="sourcePoint"/>
                        <mxPoint x="383.25" y="-499.9100000000001" as="targetPoint"/>
                    </mxGeometry>
                </mxCell>
                <mxCell id="213" value="Timeseries database&lt;br&gt;(InfluxDB)" style="shape=cylinder3;whiteSpace=wrap;html=1;boundedLbl=1;backgroundOutline=1;size=15;" parent="1" vertex="1">
                    <mxGeometry x="84.32" y="-740" width="105" height="75" as="geometry"/>
                </mxCell>
                <mxCell id="217" value="" style="endArrow=classic;html=1;exitX=0.5;exitY=1;exitDx=0;exitDy=0;exitPerimeter=0;" parent="1" source="213" edge="1">
                    <mxGeometry width="50" height="50" relative="1" as="geometry">
                        <mxPoint x="360.8800000000001" y="-354" as="sourcePoint"/>
                        <mxPoint x="136.75" y="-510" as="targetPoint"/>
                    </mxGeometry>
                </mxCell>
                <mxCell id="233" value="Imputer" style="rounded=1;whiteSpace=wrap;html=1;" parent="1" vertex="1">
                    <mxGeometry x="78.32999999999998" y="-420" width="109.62" height="50" as="geometry"/>
                </mxCell>
                <mxCell id="234" value="Generator" style="rounded=1;whiteSpace=wrap;html=1;" parent="1" vertex="1">
                    <mxGeometry x="200.7" y="-420" width="109.62" height="50" as="geometry"/>
                </mxCell>
                <mxCell id="313" value="" style="endArrow=classic;html=1;exitX=0.5;exitY=1;exitDx=0;exitDy=0;" parent="1" source="21" target="213" edge="1">
                    <mxGeometry relative="1" as="geometry">
                        <mxPoint x="146.135" y="-800" as="sourcePoint"/>
                        <mxPoint x="266.51" y="-730" as="targetPoint"/>
                    </mxGeometry>
                </mxCell>
                <mxCell id="315" value="" style="endArrow=classic;html=1;exitX=0.75;exitY=0;exitDx=0;exitDy=0;entryX=0.855;entryY=1;entryDx=0;entryDy=-4.35;entryPerimeter=0;" parent="1" source="319" target="2" edge="1">
                    <mxGeometry relative="1" as="geometry">
                        <mxPoint x="296.4649999999997" y="-485.6500000000001" as="sourcePoint"/>
                        <mxPoint x="148" y="-720" as="targetPoint"/>
                    </mxGeometry>
                </mxCell>
                <mxCell id="316" value="predictions" style="edgeLabel;resizable=0;html=1;align=center;verticalAlign=middle;" parent="315" connectable="0" vertex="1">
                    <mxGeometry relative="1" as="geometry"/>
                </mxCell>
                <mxCell id="317" value="" style="endArrow=classic;html=1;exitX=0.145;exitY=1;exitDx=0;exitDy=-4.35;exitPerimeter=0;entryX=0.25;entryY=0;entryDx=0;entryDy=0;" parent="1" source="2" target="319" edge="1">
                    <mxGeometry relative="1" as="geometry">
                        <mxPoint x="303.775" y="-604.65" as="sourcePoint"/>
                        <mxPoint x="221.91499999999996" y="-485.6500000000001" as="targetPoint"/>
                    </mxGeometry>
                </mxCell>
                <mxCell id="318" value="measurements" style="edgeLabel;resizable=0;html=1;align=center;verticalAlign=middle;" parent="317" connectable="0" vertex="1">
                    <mxGeometry relative="1" as="geometry"/>
                </mxCell>
                <mxCell id="319" value="models" style="rounded=1;whiteSpace=wrap;html=1;" parent="1" vertex="1">
                    <mxGeometry x="181.5" y="-610" width="150" height="80" as="geometry"/>
                </mxCell>
            </root>
        </mxGraphModel>
    </diagram>
</mxfile>